<svg xmlns="http://www.w3.org/2000/svg" viewBox="0 0 297 32"><defs><style>.cls-1{fill:#657598;}.cls-2{fill:#fff;}</style></defs><title>alphaswiss_logo</title><g id="logo_desktop" data-name="logo desktop"><g id="logo"><polygon class="cls-1" points="12.87 30.54 16.5 21.26 22.52 21.26 18.89 30.54 12.87 30.54"/><polygon class="cls-1" points="134.88 30.54 138.51 21.26 144.53 21.26 140.9 30.54 134.88 30.54"/><polygon class="cls-1" points="218.11 1.5 214.48 10.79 208.46 10.79 212.09 1.5 218.11 1.5"/><path class="cls-2" d="M35.93,1.5h5.91V25.23h15v5.32H35.93Z"/><path class="cls-2" d="M239.83,30.58H234V1.5h5.83Z"/><polygon class="cls-2" points="20.18 1.5 31.54 30.54 25.52 30.54 16.5 7.46 7.48 30.54 1.46 30.54 12.81 1.5 20.18 1.5"/><polygon class="cls-2" points="142.2 1.5 153.55 30.54 147.53 30.54 138.51 7.46 129.5 30.54 123.48 30.54 134.83 1.5 142.2 1.5"/><path class="cls-2" d="M75.58,1.5c-3.52,0-13.8,0-13.8,0v29h5.94V22.57h8C82,22.41,86.27,18.12,86.18,12,86.09,5.31,82.25,1.53,75.58,1.5Zm-.74,15.76H67.71V6.76h7.13A5,5,0,0,1,80,12,5,5,0,0,1,74.84,17.26Z"/><polygon class="cls-2" points="205.46 1.5 199.45 1.5 203.07 10.79 197.69 24.58 188.67 1.5 182.65 1.5 194 30.54 201.37 30.54 206.08 18.49 210.8 30.54 218.17 30.54 229.52 1.5 223.5 1.5 214.48 24.58 205.46 1.5"/><path class="cls-2" d="M158.67,22.58l-1.57,5.75A23.27,23.27,0,0,0,167.79,31c6.11,0,11.43-2.77,12-8.42,1.29-12-17.78-8-16.2-14,.94-3.62,8.78-2.3,13.76.26L179,3.1A28.12,28.12,0,0,0,168.26,1c-6.11,0-10.43,2.63-11,7.58-1.36,12.7,18.14,7.79,16.13,14.5C172.35,26.65,164.06,26,158.67,22.58Z"/><path class="cls-2" d="M247.71,22.58l-1.58,5.75A23.27,23.27,0,0,0,256.82,31c6.11,0,11.43-2.77,12-8.42,1.29-12-17.78-8-16.2-14,.94-3.62,8.78-2.3,13.76.26L268,3.1A28.09,28.09,0,0,0,257.3,1c-6.12,0-10.44,2.63-11,7.58-1.35,12.7,18.14,7.79,16.13,14.5C261.38,26.65,253.09,26,247.71,22.58Z"/><path class="cls-2" d="M274.52,22.58,273,28.33A23.27,23.27,0,0,0,283.64,31c6.11,0,11.43-2.77,12-8.42,1.29-12-17.78-8-16.21-14,1-3.62,8.79-2.3,13.77.26L294.8,3.1A28.12,28.12,0,0,0,284.11,1c-6.11,0-10.43,2.63-11,7.58-1.36,12.7,18.14,7.79,16.12,14.5C288.2,26.65,279.9,26,274.52,22.58Z"/><path class="cls-2" d="M97.5,13.26h15.6V1.5H119V30.55h-5.8V18.64H97.58v11.9h-6V1.5H97.5Z"/></g></g></svg>